<mxfile host="app.diagrams.net" modified="2022-04-13T08:50:30.049Z" agent="5.0 (Windows NT 10.0; Win64; x64) AppleWebKit/537.36 (KHTML, like Gecko) Chrome/100.0.4896.88 Safari/537.36" etag="CZIzPzx0iJ3FCCNmZ0iF" version="17.2.1" type="github">
  <diagram id="IYbLyZFpPOKo4ASsVLhy" name="Page-1">
    <mxGraphModel dx="1422" dy="762" grid="1" gridSize="10" guides="1" tooltips="1" connect="1" arrows="1" fold="1" page="1" pageScale="1" pageWidth="827" pageHeight="1169" math="0" shadow="0">
      <root>
        <mxCell id="0" />
        <mxCell id="1" parent="0" />
        <mxCell id="b4OvjNOmXUKd7AvuDh9C-7" value="" style="rounded=0;whiteSpace=wrap;html=1;fillColor=#f5f5f5;gradientColor=#b3b3b3;strokeColor=#666666;" vertex="1" parent="1">
          <mxGeometry x="220" y="60" width="250" height="540" as="geometry" />
        </mxCell>
        <mxCell id="ZZZHI9sUwLXXaFWhwEAy-2" value="User" style="shape=umlActor;verticalLabelPosition=bottom;verticalAlign=top;html=1;outlineConnect=0;" parent="1" vertex="1">
          <mxGeometry x="90" y="240" width="30" height="60" as="geometry" />
        </mxCell>
        <mxCell id="b4OvjNOmXUKd7AvuDh9C-3" value="&lt;div&gt;&lt;span style=&quot;line-height: 3.8&quot;&gt;create widget&lt;/span&gt;&lt;/div&gt;" style="ellipse;whiteSpace=wrap;html=1;verticalAlign=top;align=center;" vertex="1" parent="1">
          <mxGeometry x="285" y="110" width="120" height="60" as="geometry" />
        </mxCell>
        <mxCell id="b4OvjNOmXUKd7AvuDh9C-9" value="" style="endArrow=none;html=1;rounded=0;" edge="1" parent="1">
          <mxGeometry width="50" height="50" relative="1" as="geometry">
            <mxPoint x="150" y="250" as="sourcePoint" />
            <mxPoint x="285" y="160" as="targetPoint" />
          </mxGeometry>
        </mxCell>
        <mxCell id="b4OvjNOmXUKd7AvuDh9C-10" value="&lt;div&gt;&lt;span style=&quot;line-height: 3.8&quot;&gt;edit widget&lt;/span&gt;&lt;/div&gt;" style="ellipse;whiteSpace=wrap;html=1;verticalAlign=top;align=center;" vertex="1" parent="1">
          <mxGeometry x="285" y="230" width="120" height="60" as="geometry" />
        </mxCell>
        <mxCell id="b4OvjNOmXUKd7AvuDh9C-11" value="&lt;div&gt;&lt;span style=&quot;line-height: 3.8&quot;&gt;widget layout&lt;/span&gt;&lt;/div&gt;" style="ellipse;whiteSpace=wrap;html=1;verticalAlign=top;align=center;" vertex="1" parent="1">
          <mxGeometry x="285" y="340" width="120" height="60" as="geometry" />
        </mxCell>
        <mxCell id="b4OvjNOmXUKd7AvuDh9C-12" value="&lt;div&gt;&lt;span style=&quot;line-height: 3.8&quot;&gt;save widget layout&lt;/span&gt;&lt;/div&gt;" style="ellipse;whiteSpace=wrap;html=1;verticalAlign=top;align=center;" vertex="1" parent="1">
          <mxGeometry x="285" y="440" width="120" height="60" as="geometry" />
        </mxCell>
        <mxCell id="b4OvjNOmXUKd7AvuDh9C-13" value="" style="endArrow=none;html=1;rounded=0;entryX=0;entryY=0.5;entryDx=0;entryDy=0;" edge="1" parent="1" target="b4OvjNOmXUKd7AvuDh9C-10">
          <mxGeometry width="50" height="50" relative="1" as="geometry">
            <mxPoint x="160" y="280" as="sourcePoint" />
            <mxPoint x="210" y="230" as="targetPoint" />
          </mxGeometry>
        </mxCell>
        <mxCell id="b4OvjNOmXUKd7AvuDh9C-14" value="" style="endArrow=none;html=1;rounded=0;" edge="1" parent="1">
          <mxGeometry width="50" height="50" relative="1" as="geometry">
            <mxPoint x="160" y="320" as="sourcePoint" />
            <mxPoint x="270" y="370" as="targetPoint" />
          </mxGeometry>
        </mxCell>
        <mxCell id="b4OvjNOmXUKd7AvuDh9C-15" value="" style="endArrow=none;html=1;rounded=0;" edge="1" parent="1">
          <mxGeometry width="50" height="50" relative="1" as="geometry">
            <mxPoint x="140" y="340" as="sourcePoint" />
            <mxPoint x="280" y="470" as="targetPoint" />
          </mxGeometry>
        </mxCell>
      </root>
    </mxGraphModel>
  </diagram>
</mxfile>
